<svg width="145" height="61" viewBox="0 0 145 61" fill="none" xmlns="http://www.w3.org/2000/svg">
<path opacity="0.92" fill-rule="evenodd" clip-rule="evenodd" d="M36.1373 24.0054C36.7594 24.0071 37.1921 24.1106 37.5789 24.3523C37.8836 24.5431 38.5136 25.0051 38.981 25.38C39.4468 25.7549 40.151 26.5046 40.5442 27.0472C40.9373 27.5898 41.5247 28.6256 41.85 29.3491C42.1752 30.0725 42.5842 31.2925 42.7594 32.062C42.9347 32.8315 43.1257 34.0515 43.1826 34.775C43.241 35.5033 43.2063 36.8615 43.1052 37.8167C43.0057 38.7671 42.6868 40.505 42.3979 41.6806C42.1073 42.8562 41.2342 45.8536 39.0394 52.8612L38.3494 53.0865C37.9673 53.2098 37.4273 53.2657 37.1447 53.2098C36.8621 53.1539 36.5921 53.0158 36.5431 52.9023C36.4942 52.7889 37.0926 50.6613 37.8742 48.1752C38.6557 45.6876 39.4721 42.9138 39.6868 42.0095C39.9031 41.1052 40.1557 39.8292 40.2505 39.1732C40.3436 38.5172 40.421 37.1295 40.421 36.0903C40.421 35.0068 40.3136 33.6553 40.17 32.9252C40.0326 32.2248 39.7152 31.0952 39.4657 30.4178C39.2179 29.7388 38.6668 28.6667 38.2436 28.0337C37.8205 27.4007 37.1605 26.5983 36.7768 26.253C36.3931 25.9061 35.7584 25.4293 35.3684 25.1958C34.9768 24.9607 34.6215 24.7387 34.5789 24.7026C34.5347 24.6647 34.6689 24.4937 34.8742 24.3195C35.1442 24.0942 35.4979 24.0054 36.1373 24.0054ZM32.6842 7.46143C34.3436 7.50254 34.6089 7.55515 35.7631 8.06485C36.6963 8.47755 37.2868 8.88202 38.0273 9.6137C38.6652 10.2451 39.1973 10.9636 39.491 11.5917C39.7468 12.1343 40.0357 13.0961 40.1336 13.7291C40.271 14.6121 40.2679 15.1284 40.1179 15.9488C40.0121 16.5374 39.6631 17.5289 39.3442 18.1553C38.9889 18.8492 38.4473 19.5874 37.9515 20.0462C37.5047 20.4605 36.7594 20.9982 36.2936 21.2399C35.8279 21.4816 35.021 21.7989 34.5 21.9436C33.9742 22.0916 32.921 22.2116 32.1315 22.2132C31.35 22.2165 30.3552 22.136 29.921 22.034C29.4868 21.9321 28.6752 21.6115 28.1163 21.3237C27.5289 21.0195 26.741 20.4178 26.2484 19.8949C25.7794 19.3967 25.1857 18.5467 24.93 18.0041C24.6726 17.4615 24.3805 16.5374 24.281 15.9488C24.1405 15.1316 24.1421 14.6285 24.2857 13.8114C24.39 13.2227 24.6868 12.2806 24.9473 11.715C25.2221 11.1198 25.7873 10.3059 26.2894 9.78305C26.8357 9.21415 27.581 8.66499 28.3026 8.30326C28.9326 7.98593 29.7679 7.65709 30.1579 7.57159C30.5479 7.48609 31.6863 7.43677 32.6842 7.46143ZM29.6842 9.31609C29.2926 9.59232 28.7305 10.107 28.4321 10.4588C28.1352 10.8107 27.7342 11.4684 27.5415 11.9205C27.3505 12.3727 27.1184 13.1487 27.0268 13.6469C26.9147 14.2619 26.9115 14.9212 27.0173 15.7022C27.1247 16.4865 27.36 17.2149 27.7579 17.9893C28.08 18.6157 28.6263 19.3803 28.9736 19.6894C29.321 20.0001 29.9605 20.4408 30.3947 20.671C30.8289 20.9012 31.5742 21.1281 32.0526 21.1757C32.7915 21.2497 33.0742 21.1889 33.9473 20.7663C34.511 20.4934 35.2847 19.9459 35.6636 19.548C36.0442 19.1517 36.5779 18.3461 36.8479 17.7574C37.3089 16.7594 37.3421 16.5687 37.3421 14.8801C37.3421 13.2014 37.3073 12.9942 36.8557 12.0027C36.581 11.3993 36.03 10.5805 35.5926 10.125C35.1647 9.67946 34.4605 9.14839 34.0263 8.94286C33.5921 8.73569 32.8815 8.52852 32.4473 8.47919C31.9926 8.42822 31.3894 8.48084 31.0263 8.60251C30.6789 8.71925 30.0742 9.03987 29.6842 9.31609ZM28.9263 23.2277C30.1042 23.2524 30.8479 23.3379 30.9789 23.4645C31.1447 23.6256 31.0121 23.961 30.2763 25.232C29.7773 26.0952 29.3857 26.8318 29.4079 26.8713C29.43 26.9091 30.1215 27.0587 30.9473 27.2018C31.7715 27.3448 32.5184 27.5306 32.6052 27.6161C32.6984 27.7082 32.7173 28.0617 32.651 28.4777C32.591 28.8673 32.5373 31.7924 32.5326 34.9805C32.5263 40.625 32.5168 40.7878 32.1915 41.2285C32.0084 41.4767 31.3515 42.1509 30.731 42.7263C30.1121 43.3018 28.7873 44.3459 27.7894 45.0447C26.7915 45.7451 25.6894 46.3978 25.3421 46.4965C24.9947 46.5952 24.4673 46.6247 24.1705 46.5623C23.7789 46.4801 23.531 46.2795 23.2626 45.8322C23.0605 45.4935 22.6531 44.6057 22.3579 43.8592C22.0626 43.1127 21.6679 41.9108 21.1373 39.872L21.4784 38.8033C21.6647 38.2163 22.2694 36.4767 22.8205 34.9394C23.3715 33.4021 24.0394 31.6444 24.3063 31.0344C24.7405 30.038 24.8494 29.9081 25.3815 29.7618C25.7068 29.6714 26.1505 29.5957 26.3684 29.5941C26.5847 29.5924 26.9052 29.696 27.0789 29.8259C27.3552 30.0331 27.371 30.1202 27.2068 30.528C27.1026 30.7845 26.6005 32.067 26.0889 33.3774C25.5789 34.6878 24.9 36.5573 24.581 37.529C24.2605 38.5007 24.0015 39.5004 24.0031 39.7487C24.0047 39.997 24.1168 40.6448 24.2526 41.1874C24.3884 41.7299 24.7073 42.7099 24.96 43.3659C25.2142 44.022 25.4747 44.5613 25.5394 44.5646C25.6042 44.5678 26.1015 44.2357 26.6447 43.8247C27.1879 43.4136 28.1384 42.5784 29.8879 40.8585L29.7821 35.9259C29.7236 33.1225 29.7426 30.426 29.8263 29.6779C29.9068 28.9545 29.9621 28.3428 29.9479 28.3182C29.9336 28.2952 29.1757 28.2014 28.2631 28.1126C27.341 28.0239 26.52 27.8611 26.4142 27.746C26.2642 27.5849 26.4221 27.2083 27.1531 25.9785C27.6647 25.1202 28.0531 24.3606 28.0152 24.2932C27.9773 24.2257 27.7168 24.2159 27.4342 24.2734C27.1515 24.331 26.43 24.645 25.83 24.9722C25.1257 25.3553 24.2826 26.0344 23.4536 26.8828C22.7463 27.6062 21.1357 29.4938 19.8742 31.0755C18.6126 32.6589 17.0889 34.4297 16.4873 35.0117C15.8873 35.5938 14.7552 36.5047 13.9736 37.0357C13.1557 37.5915 12.1168 38.1374 11.5263 38.3232C10.961 38.5007 10.3215 38.6454 10.1052 38.6454C9.88733 38.6454 9.56838 38.5369 9.39469 38.4054C9.11522 38.1933 9.10575 38.139 9.31575 37.9351C9.4468 37.8085 9.87154 37.5849 10.2631 37.4369C10.6531 37.2906 11.4 36.8861 11.921 36.5392C12.4421 36.1923 13.3926 35.3948 14.0336 34.7667C14.6747 34.1387 15.8431 32.8101 16.631 31.8154C17.4205 30.8207 18.671 29.2751 19.4131 28.3806C20.1552 27.4862 21.2952 26.309 21.9473 25.7647C22.5979 25.2205 23.6289 24.5299 24.2368 24.2307C24.8447 23.9298 25.7321 23.573 26.2105 23.4365C26.8042 23.2672 27.6631 23.1998 28.9263 23.2277Z" fill="#1DA8E2"/>
<path d="M67.1 33.46L66.64 30.78L73.52 23.5H76.5L67.1 33.46ZM65.66 37.5V23.5H67.94V37.5H65.66ZM73.88 37.5L68.24 30.38L69.88 28.96L76.74 37.5H73.88ZM82.1414 37.74C81.1681 37.74 80.3014 37.52 79.5414 37.08C78.7947 36.6267 78.2014 36.0067 77.7614 35.22C77.3347 34.4333 77.1214 33.5267 77.1214 32.5C77.1214 31.4733 77.3414 30.5667 77.7814 29.78C78.2214 28.9933 78.8214 28.38 79.5814 27.94C80.3547 27.4867 81.2347 27.26 82.2214 27.26C83.1147 27.26 83.9214 27.4933 84.6414 27.96C85.3614 28.4133 85.9281 29.0733 86.3414 29.94C86.7681 30.8067 86.9814 31.84 86.9814 33.04H79.1214L79.4214 32.76C79.4214 33.3733 79.5547 33.9067 79.8214 34.36C80.0881 34.8 80.4414 35.14 80.8814 35.38C81.3214 35.62 81.8081 35.74 82.3414 35.74C82.9547 35.74 83.4614 35.6067 83.8614 35.34C84.2614 35.06 84.5747 34.7 84.8014 34.26L86.7814 35.1C86.5014 35.6333 86.1414 36.1 85.7014 36.5C85.2747 36.9 84.7614 37.2067 84.1614 37.42C83.5747 37.6333 82.9014 37.74 82.1414 37.74ZM79.5614 31.6L79.2414 31.32H84.8814L84.5814 31.6C84.5814 31.0533 84.4614 30.6067 84.2214 30.26C83.9814 29.9 83.6747 29.6333 83.3014 29.46C82.9414 29.2733 82.5614 29.18 82.1614 29.18C81.7614 29.18 81.3614 29.2733 80.9614 29.46C80.5614 29.6333 80.2281 29.9 79.9614 30.26C79.6947 30.6067 79.5614 31.0533 79.5614 31.6ZM90.177 32.18C90.177 31.1 90.3837 30.2133 90.797 29.52C91.2104 28.8267 91.7437 28.3133 92.397 27.98C93.0637 27.6333 93.757 27.46 94.477 27.46V29.6C93.8637 29.6 93.2837 29.6867 92.737 29.86C92.2037 30.02 91.7704 30.2867 91.437 30.66C91.1037 31.0333 90.937 31.5267 90.937 32.14L90.177 32.18ZM88.697 37.5V27.5H90.937V37.5H88.697ZM97.8427 25.64C97.4693 25.64 97.1493 25.5067 96.8827 25.24C96.6293 24.9733 96.5027 24.66 96.5027 24.3C96.5027 23.9267 96.6293 23.6133 96.8827 23.36C97.1493 23.0933 97.4693 22.96 97.8427 22.96C98.2027 22.96 98.516 23.0933 98.7827 23.36C99.0493 23.6133 99.1827 23.9267 99.1827 24.3C99.1827 24.66 99.0493 24.9733 98.7827 25.24C98.516 25.5067 98.2027 25.64 97.8427 25.64ZM95.6227 41.8C94.9693 41.8 94.276 41.6067 93.5427 41.22L94.4427 39.36C94.6827 39.48 94.9027 39.5667 95.1027 39.62C95.3027 39.6867 95.4693 39.72 95.6027 39.72C96.3493 39.72 96.7227 39.24 96.7227 38.28V27.5H98.9427V38.4C98.9427 39.4933 98.656 40.3333 98.0827 40.92C97.5227 41.5067 96.7027 41.8 95.6227 41.8ZM107.707 37.5L107.607 35.62V32.36C107.607 31.68 107.534 31.1133 107.387 30.66C107.254 30.1933 107.027 29.84 106.707 29.6C106.401 29.3467 105.987 29.22 105.467 29.22C104.987 29.22 104.567 29.32 104.207 29.52C103.847 29.72 103.541 30.0333 103.287 30.46L101.327 29.74C101.541 29.3 101.821 28.8933 102.167 28.52C102.527 28.1333 102.974 27.8267 103.507 27.6C104.054 27.3733 104.707 27.26 105.467 27.26C106.441 27.26 107.254 27.4533 107.907 27.84C108.561 28.2133 109.041 28.7533 109.347 29.46C109.667 30.1667 109.827 31.02 109.827 32.02L109.767 37.5H107.707ZM104.827 37.74C103.627 37.74 102.694 37.4733 102.027 36.94C101.374 36.4067 101.047 35.6533 101.047 34.68C101.047 33.64 101.394 32.8467 102.087 32.3C102.794 31.7533 103.774 31.48 105.027 31.48H107.707V33.2H105.747C104.854 33.2 104.227 33.3267 103.867 33.58C103.507 33.82 103.327 34.1667 103.327 34.62C103.327 35.0067 103.481 35.3133 103.787 35.54C104.107 35.7533 104.547 35.86 105.107 35.86C105.614 35.86 106.054 35.7467 106.427 35.52C106.801 35.2933 107.087 34.9933 107.287 34.62C107.501 34.2467 107.607 33.8267 107.607 33.36H108.267C108.267 34.72 107.994 35.7933 107.447 36.58C106.901 37.3533 106.027 37.74 104.827 37.74ZM112.095 37.5V27.5H114.195L114.295 28.84C114.602 28.32 114.995 27.9267 115.475 27.66C115.955 27.3933 116.502 27.26 117.115 27.26C117.915 27.26 118.595 27.44 119.155 27.8C119.715 28.16 120.122 28.7067 120.375 29.44C120.669 28.7333 121.082 28.1933 121.615 27.82C122.149 27.4467 122.775 27.26 123.495 27.26C124.655 27.26 125.549 27.6333 126.175 28.38C126.802 29.1133 127.109 30.2467 127.095 31.78V37.5H124.875V32.38C124.875 31.58 124.789 30.9667 124.615 30.54C124.442 30.1 124.209 29.7933 123.915 29.62C123.622 29.4467 123.282 29.36 122.895 29.36C122.202 29.3467 121.662 29.5933 121.275 30.1C120.902 30.6067 120.715 31.3333 120.715 32.28V37.5H118.475V32.38C118.475 31.58 118.389 30.9667 118.215 30.54C118.055 30.1 117.829 29.7933 117.535 29.62C117.242 29.4467 116.902 29.36 116.515 29.36C115.822 29.3467 115.282 29.5933 114.895 30.1C114.522 30.6067 114.335 31.3333 114.335 32.28V37.5H112.095ZM129.521 37.5V27.5H131.741V37.5H129.521ZM130.641 25.6C130.281 25.6 129.967 25.4733 129.701 25.22C129.447 24.9533 129.321 24.64 129.321 24.28C129.321 23.92 129.447 23.6133 129.701 23.36C129.967 23.1067 130.281 22.98 130.641 22.98C131.001 22.98 131.307 23.1067 131.561 23.36C131.827 23.6133 131.961 23.92 131.961 24.28C131.961 24.64 131.827 24.9533 131.561 25.22C131.307 25.4733 131.001 25.6 130.641 25.6ZM134.381 37.5V27.5H136.481L136.621 29.34V37.5H134.381ZM141.161 37.5V32.38H143.401V37.5H141.161ZM141.161 32.38C141.161 31.58 141.067 30.9667 140.881 30.54C140.707 30.1 140.454 29.7933 140.121 29.62C139.801 29.4467 139.421 29.36 138.981 29.36C138.234 29.3467 137.654 29.5933 137.241 30.1C136.827 30.6067 136.621 31.3333 136.621 32.28H135.781C135.781 31.2267 135.934 30.3267 136.241 29.58C136.547 28.82 136.987 28.2467 137.561 27.86C138.134 27.46 138.814 27.26 139.601 27.26C140.401 27.26 141.081 27.42 141.641 27.74C142.214 28.06 142.647 28.56 142.941 29.24C143.247 29.9067 143.401 30.78 143.401 31.86V32.38H141.161Z" fill="#1DA8E2"/>
</svg>
